<svg xmlns="http://www.w3.org/2000/svg" xmlns:xlink="http://www.w3.org/1999/xlink" viewBox="116.06 178.46 689.41 553.47"><path fill="#2E2D2E" transform="scale(1.79883 1.79883)" d="M152.606 99.747C180.546 95.0591 210.603 121.896 213.611 149.542C238.833 136.58 264.858 133.83 291.399 145.951C293.787 147.041 295.565 147.968 297.669 149.542C306.188 114.768 335.432 91.8271 372.157 101.552C407.407 110.887 426.139 149.625 411.842 183.039C410.452 186.287 408.749 189.356 407.091 192.461C413.865 197.269 426.289 212.554 430.984 219.672C468.534 276.608 438.556 338.253 385.887 372.631C307.078 424.793 165.365 417.666 97.7605 349.41C55.5045 306.756 53.7417 251.546 91.2834 205.381C95.3527 200.377 100.521 196.088 105.106 191.558C90.0519 165.746 92.3094 136.532 114.696 115.451C124.052 106.642 139.556 99.2842 152.606 99.747ZM214.431 164.323C212.5 201.049 175.601 227.029 140.142 217.662C131.993 215.509 118.445 208.233 113.318 201.427C110.705 203.1 106.917 206.916 104.731 209.309C75.1349 241.721 67.4632 284.271 92.1459 322.233C125.19 373.056 200.046 396.317 259.05 394.255C306.12 395.508 366.635 377.567 400.736 345.568C419.65 327.821 434.765 301.927 434.979 275.513C435.2 248.086 420.777 219.25 398.902 202.522C373.031 225.347 335.569 226.489 311.949 199.354C303.952 190.166 296.153 175.326 297.669 163L297.229 162.838C280.942 156.725 272.978 148.859 252.374 151.038C238.786 151.503 225.416 156.357 214.431 164.323ZM359.633 206.896C385.778 205.323 405.689 182.839 404.09 156.696C402.49 130.552 379.987 110.664 353.845 112.289C327.74 113.912 307.886 136.377 309.483 162.483C311.08 188.59 333.524 208.467 359.633 206.896ZM159.849 206.532C185.895 204.005 204.934 180.802 202.327 154.764C199.72 128.726 176.459 109.758 150.429 112.444C124.511 115.119 105.643 138.258 108.239 164.184C110.834 190.11 133.916 209.049 159.849 206.532Z"></path><path fill="#2E2D2E" transform="scale(1.79883 1.79883)" d="M382.766 246.587C390.175 245.916 390.026 251.822 390.672 257.154C393.171 276.659 413.694 275.435 415.549 277.831C421.204 285.14 414.448 290.937 406.521 288.533C400.079 286.58 398.66 286.426 393.24 283.097C317.351 359.445 208.817 359.204 127.169 290.78C124.579 288.609 122.138 286.333 119.485 284.207C111.421 287.469 107.629 289.007 98.7386 288.428C95.0613 287.203 92.9533 284.146 93.9803 280.24C95.444 274.673 101.325 275.848 105.695 275.299C125.666 272.789 119.066 252.237 124.378 249.003C131.248 244.82 135.85 251.161 134.39 257.967C132.701 265.841 131.97 268.151 129.252 275.585C130.812 276.909 132.273 278.366 133.821 279.698C202.132 338.5 288.281 346.102 361.862 293.406C370.082 287.519 378.015 281.225 384.801 273.703C379.854 267.96 372.347 249.782 382.766 246.587Z"></path><path fill="#2E2D2E" transform="scale(1.79883 1.79883)" d="M303.795 240.117C310.928 239.943 318.669 243.051 320.36 250.513C316.645 265.455 307.468 248.204 299.261 254.565C295.349 257.597 295.454 260.026 294.829 264.269C288.511 303.784 230.736 309.323 217.986 268.679C215.461 260.631 217.98 253.999 207.078 252.497C202.336 253.221 201.546 256.429 197.695 257.01C191.85 257.893 188.871 250.56 192.792 246.289C203.544 234.578 222.854 241.009 227.973 254.861C228.902 257.372 228.999 259.932 229.398 262.521C233.427 288.637 272.569 293.057 281.653 265.726C282.495 263.118 282.623 260.273 283.24 257.62C285.572 247.591 293.806 240.977 303.795 240.117Z"></path><path fill="#02B645" transform="scale(1.79883 1.79883)" d="M353.572 132.876C368.302 131.264 381.563 141.866 383.232 156.59C384.902 171.313 374.353 184.615 359.636 186.343C344.836 188.081 331.443 177.459 329.764 162.653C328.085 147.847 338.759 134.496 353.572 132.876ZM366.113 161.212C371.351 160.484 374.989 155.623 374.21 150.392C373.43 145.162 368.534 141.572 363.311 142.403C358.161 143.222 354.632 148.037 355.4 153.195C356.168 158.353 360.948 161.929 366.113 161.212Z"></path><path fill="#02B645" transform="scale(1.79883 1.79883)" d="M152.231 133.324C166.777 131.478 180.077 141.744 181.975 156.284C183.873 170.824 173.655 184.16 159.123 186.111C144.515 188.072 131.095 177.79 129.187 163.176C127.279 148.562 137.61 135.179 152.231 133.324ZM149.872 161.731C155.13 160.647 158.511 155.502 157.42 150.244C156.329 144.987 151.179 141.613 145.924 142.711C140.678 143.807 137.311 148.945 138.401 154.192C139.49 159.44 144.623 162.813 149.872 161.731Z"></path></svg>